<?xml version="1.0" encoding="iso-8859-1"?>
<!-- Generator: Adobe Illustrator 19.0.0, SVG Export Plug-In . SVG Version: 6.00 Build 0)  -->
<svg version="1.1" id="Capa_1" xmlns="http://www.w3.org/2000/svg" xmlns:xlink="http://www.w3.org/1999/xlink" x="0px" y="0px"
	 viewBox="0 0 512 512" style="enable-background:new 0 0 512 512;" xml:space="preserve">
<path style="fill:#F2F2F2;" d="M101.333,0l38.4,34.133L179.2,0l38.4,34.133L256,0l38.4,34.133L332.8,0l38.4,34.133L410.667,0
	l41.6,30.933v459.733c0,11.733-9.6,21.333-21.333,21.333H81.067c-11.733,0-21.333-9.6-21.333-21.333V30.933L101.333,0z"/>
<rect x="98.133" y="75.733" style="fill:#4CDBC4;" width="314.667" height="48"/>
<g>
	<rect x="243.2" y="162.133" style="fill:#CDD6E0;" width="170.667" height="48"/>
	<rect x="243.2" y="249.6" style="fill:#CDD6E0;" width="170.667" height="48"/>
	<rect x="98.133" y="336" style="fill:#CDD6E0;" width="314.667" height="48"/>
	<rect x="98.133" y="422.4" style="fill:#CDD6E0;" width="314.667" height="48"/>
</g>
<path style="fill:#FF7058;" d="M150.4,299.733v-12.8c-16-2.133-29.867-8.533-42.667-19.2l12.8-14.933
	c9.6,8.533,20.267,13.867,29.867,14.933v-33.067c-12.8-3.2-22.4-7.467-28.8-12.8c-6.4-5.333-9.6-12.8-9.6-22.4
	s3.2-18.133,10.667-24.533c7.467-6.4,16-9.6,27.733-10.667v-8.533h11.733v8.533c12.8,1.067,24.533,5.333,36.267,12.8l-11.733,16
	c-7.467-5.333-16-8.533-24.533-10.667v33.067l0,0c13.867,3.2,23.467,7.467,29.867,12.8c6.4,5.333,9.6,12.8,9.6,23.467
	c0,10.667-3.2,18.133-10.667,24.533s-17.067,9.6-28.8,10.667v12.8L150.4,299.733L150.4,299.733z M137.6,186.667
	c-3.2,2.133-4.267,6.4-4.267,9.6c0,4.267,1.067,7.467,3.2,9.6s6.4,4.267,12.8,6.4V182.4
	C145.067,183.467,140.8,184.533,137.6,186.667z M174.933,263.467c3.2-3.2,5.333-6.4,5.333-10.667s-1.067-7.467-4.267-9.6
	c-2.133-2.133-7.467-4.267-13.867-6.4v32C166.4,268.8,170.667,266.667,174.933,263.467z"/>
<g>
</g>
<g>
</g>
<g>
</g>
<g>
</g>
<g>
</g>
<g>
</g>
<g>
</g>
<g>
</g>
<g>
</g>
<g>
</g>
<g>
</g>
<g>
</g>
<g>
</g>
<g>
</g>
<g>
</g>
</svg>
