<?xml version="1.0" encoding="iso-8859-1"?>
<!-- Generator: Adobe Illustrator 19.0.0, SVG Export Plug-In . SVG Version: 6.00 Build 0)  -->
<svg version="1.1" id="Capa_1" xmlns="http://www.w3.org/2000/svg" xmlns:xlink="http://www.w3.org/1999/xlink" x="0px" y="0px"
	 viewBox="0 0 511.203 511.203" style="enable-background:new 0 0 511.203 511.203;" xml:space="preserve">
<rect x="148.34" y="294.181" transform="matrix(-0.7071 -0.7071 0.7071 -0.7071 34.2831 708.1609)" style="fill:#F2F2F2;" width="30.933" height="105.599"/>
<circle style="fill:#334A5E;" cx="323.47" cy="187.996" r="187.733"/>
<circle style="fill:#40596B;" cx="323.47" cy="187.996" r="153.6"/>
<path style="fill:#FF7058;" d="M174.136,337.329c-17.067-17.067-34.133-28.8-112,49.067c-46.933,46.933-74.667,102.4-56.533,119.467
	c17.067,17.067,73.6-10.667,119.467-56.533C202.936,371.462,191.203,355.462,174.136,337.329z"/>
<path style="fill:#E8EAEA;" d="M380.003,303.196c-23.467,3.2-49.067-8.533-68.267-27.733c-26.667,6.4-52.267,2.133-70.4-16
	c-16-16-21.333-41.6-17.067-66.133c-9.6-12.8-14.933-28.8-13.867-44.8c2.133-20.267,12.8-35.2,28.8-40.533
	c-1.067-28.8,19.2-51.2,50.133-52.267s61.867,18.133,74.667,46.933c7.467,3.2,14.933,7.467,20.267,13.867
	c14.933,14.933,21.333,37.333,18.133,60.8c8.533,10.667,16,23.467,20.267,37.333C437.603,257.329,418.403,297.862,380.003,303.196z"
	/>
<circle style="fill:#FFD15C;" cx="308.536" cy="148.529" r="51.2"/>
<path style="fill:#FFFFFF;" d="M333.07,133.596c-3.2,3.2-7.467,3.2-9.6,0c-8.533-8.533-22.4-8.533-30.933,0
	c-3.2,3.2-7.467,3.2-9.6,0c-3.2-3.2-3.2-7.467,0-9.6c13.867-13.867,36.267-13.867,50.133,0
	C336.27,126.129,336.27,130.396,333.07,133.596z"/>
<g>
</g>
<g>
</g>
<g>
</g>
<g>
</g>
<g>
</g>
<g>
</g>
<g>
</g>
<g>
</g>
<g>
</g>
<g>
</g>
<g>
</g>
<g>
</g>
<g>
</g>
<g>
</g>
<g>
</g>
</svg>
