<svg id="Capa_1" enable-background="new 0 0 512 512" height="512" viewBox="0 0 512 512" width="512" xmlns="http://www.w3.org/2000/svg"><path d="m256 88c-26.69 0-52.393 1.686-76.483 4.807-99.539 12.895-133.517 50.282-133.517 94.393v12.8c0 4.418 3.582 8 8 8h442c4.418 0 8-3.582 8-8v-12.8c0-54.787-111.033-99.2-248-99.2z" fill="#ffd97d"/><path d="m168 200c-13.255 0-24-10.745-24-24v-32c0-18.722 12.981-36.253 35.518-51.194-99.528 12.898-171.518 50.286-171.518 94.394v20.8c0 4.418 3.582 8 8 8h16l13 13.5h420.5l14.5-13.5h16c4.418 0 8-3.582 8-8v-8z" fill="#ffc269"/><path d="m120 160c-2.047 0-4.094-.781-5.656-2.344-3.125-3.125-3.125-8.188 0-11.313l8-8c3.125-3.125 8.188-3.125 11.313 0s3.125 8.188 0 11.313l-8 8c-1.563 1.563-3.61 2.344-5.657 2.344z" fill="#f9eac7"/><path d="m224 144c-2.047 0-4.094-.781-5.656-2.344l-8-8c-3.125-3.125-3.125-8.188 0-11.313s8.188-3.125 11.313 0l8 8c3.125 3.125 3.125 8.188 0 11.313-1.563 1.563-3.61 2.344-5.657 2.344z" fill="#ecbd83"/><path d="m336 184c-2.047 0-4.094-.781-5.656-2.344l-8-8c-3.125-3.125-3.125-8.188 0-11.313s8.188-3.125 11.313 0l8 8c3.125 3.125 3.125 8.188 0 11.313-1.563 1.563-3.61 2.344-5.657 2.344z" fill="#ecbd83"/><path d="m384 168c-2.047 0-4.094-.781-5.656-2.344-3.125-3.125-3.125-8.188 0-11.313l8-8c3.125-3.125 8.188-3.125 11.313 0s3.125 8.188 0 11.313l-8 8c-1.563 1.563-3.61 2.344-5.657 2.344z" fill="#f9eac7"/><path d="m304 144c-4.422 0-8-3.582-8-8v-8c0-4.418 3.578-8 8-8s8 3.582 8 8v8c0 4.418-3.578 8-8 8z" fill="#f9eac7"/><path d="m184 184h-8c-4.422 0-8-3.582-8-8s3.578-8 8-8h8c4.422 0 8 3.582 8 8s-3.578 8-8 8z" fill="#ecbd83"/><path d="m256 184c-2.047 0-4.094-.781-5.656-2.344-3.125-3.125-3.125-8.188 0-11.313l8-8c3.125-3.125 8.188-3.125 11.313 0s3.125 8.188 0 11.313l-8 8c-1.563 1.563-3.61 2.344-5.657 2.344z" fill="#f9eac7"/><path d="m432 184h-8c-4.422 0-8-3.582-8-8s3.578-8 8-8h8c4.422 0 8 3.582 8 8s-3.578 8-8 8z" fill="#ecbd83"/><path d="m80 184c-2.047 0-4.094-.781-5.656-2.344l-8-8c-3.125-3.125-3.125-8.188 0-11.313s8.188-3.125 11.313 0l8 8c3.125 3.125 3.125 8.188 0 11.313-1.563 1.563-3.61 2.344-5.657 2.344z" fill="#ffd97d"/><path d="m168.078 144c-4.422 0-8.039-3.582-8.039-8s3.539-8 7.961-8h.078c4.422 0 8 3.582 8 8s-3.578 8-8 8z" fill="#f9eac7"/><path d="m352 144c-4.422 0-8.039-3.582-8.039-8s3.539-8 7.961-8h.078c4.422 0 8 3.582 8 8s-3.578 8-8 8z" fill="#ecbd83"/><path d="m264.078 128c-4.422 0-8.039-3.582-8.039-8s3.539-8 7.961-8h.078c4.422 0 8 3.582 8 8s-3.578 8-8 8z" fill="#f9eac7"/><path d="m445 288h-374.667l-30.333-24v-24h432v24.333z" fill="#95d6a4"/><path d="m90.624 288h165.319c-41.337 0-41.337-32-82.674-32-41.323 0-41.323 32-82.645 32z" fill="#78c2a4"/><path d="m255.943 288h165.353c-41.352 0-41.352-32-82.705-32-41.324 0-41.324 32-82.648 32z" fill="#78c2a4"/><path d="m176 248h-144c-4.418 0-8-3.582-8-8v-16c0-4.418 3.582-8 8-8h144c4.418 0 8 3.582 8 8v16c0 4.418-3.582 8-8 8z" fill="#db4655"/><path d="m480 248h-144c-4.418 0-8-3.582-8-8v-16c0-4.418 3.582-8 8-8h144c4.418 0 8 3.582 8 8v16c0 4.418-3.582 8-8 8z" fill="#ff8086"/><path d="m336 248h-160c-4.418 0-8-3.582-8-8v-16c0-4.418 3.582-8 8-8h160c4.418 0 8 3.582 8 8v16c0 4.418-3.582 8-8 8z" fill="#e5646e"/><path d="m472 336h-323.5l-43-24c0-17.673 17.265-32 34.938-32h331.562c17.673 0 32 14.327 32 32 0 5.828-1.558 11.293-4.281 15.999z" fill="#c86e64"/><path d="m168 328c-17.673 0-32-14.327-32-32 0-5.859 1.689-11.277 4.438-16h-100.438c-17.673 0-32 14.327-32 32s14.327 32 32 32l14.5 10.5h404l13.5-10.5c11.814 0 22.178-6.476 27.721-16z" fill="#b4505a"/><path d="m103.992 352c-1.203 0-2.422-.27-3.57-.844-3.953-1.977-5.555-6.781-3.578-10.734l8-16c1.984-3.957 6.773-5.559 10.734-3.578 3.953 1.977 5.555 6.781 3.578 10.734l-8 16c-1.406 2.805-4.226 4.422-7.164 4.422z" fill="#c86e64"/><g fill="#e66e64"><path d="m352 304c-2.047 0-4.094-.781-5.656-2.344l-16-16c-3.125-3.125-3.125-8.188 0-11.313s8.188-3.125 11.313 0l16 16c3.125 3.125 3.125 8.188 0 11.313-1.563 1.563-3.61 2.344-5.657 2.344z"/><path d="m312 320h-8c-4.422 0-8-3.582-8-8s3.578-8 8-8h8c4.422 0 8 3.582 8 8s-3.578 8-8 8z"/><path d="m176 328c-2.047 0-4.094-.781-5.656-2.344l-8-8c-3.125-3.125-3.125-8.188 0-11.313s8.188-3.125 11.313 0l8 8c3.125 3.125 3.125 8.188 0 11.313-1.563 1.563-3.61 2.344-5.657 2.344z"/></g><path d="m64 312c-2.047 0-4.094-.781-5.656-2.344-3.125-3.125-3.125-8.188 0-11.313l8-8c3.125-3.125 8.188-3.125 11.313 0s3.125 8.188 0 11.313l-8 8c-1.563 1.563-3.61 2.344-5.657 2.344z" fill="#c86e64"/><path d="m440.008 352c-2.938 0-5.758-1.617-7.164-4.422l-8-16c-1.977-3.953-.375-8.758 3.578-10.734 3.945-1.98 8.75-.379 10.734 3.578l8 16c1.977 3.953.375 8.758-3.578 10.734-1.148.574-2.367.844-3.57.844z" fill="#c86e64"/><path d="m472 320h-8c-4.422 0-8-3.582-8-8s3.578-8 8-8h8c4.422 0 8 3.582 8 8s-3.578 8-8 8z" fill="#e66e64"/><path d="m240 352c-4.422 0-8-3.582-8-8v-8c0-4.418 3.578-8 8-8s8 3.582 8 8v8c0 4.418-3.578 8-8 8z" fill="#c86e64"/><path d="m456 417h-318c-26.51 0-48-21.49-48-48v-9l54-16h344c8.837 0 16 7.163 16 16v16c0 12.295-4.623 23.511-12.225 32.004z" fill="#ffd97d"/><path d="m192 408c-26.51 0-48-21.49-48-48v-16h-120c-8.836 0-16 7.163-16 16v16c0 26.51 21.49 48 48 48h400c14.198 0 26.983-6.201 35.771-16z" fill="#ffc269"/><path d="m421.297 296c-23.406 0-35.539-9.391-46.25-17.672-9.93-7.688-18.508-14.328-36.453-14.328-17.93 0-26.5 6.641-36.43 14.328-10.695 8.281-22.828 17.672-46.219 17.672-23.398 0-35.531-9.391-46.234-17.672-9.93-7.688-18.508-14.328-36.445-14.328-17.922 0-26.5 6.637-36.422 14.324-10.696 8.285-22.821 17.676-46.219 17.676-23.391 0-35.516-9.391-46.211-17.676-9.922-7.687-18.492-14.324-36.414-14.324-4.422 0-8-3.582-8-8s3.578-8 8-8c23.391 0 35.516 9.391 46.211 17.676 9.922 7.687 18.492 14.324 36.414 14.324s26.5-6.637 36.422-14.324c10.695-8.285 22.82-17.676 46.219-17.676 23.406 0 35.539 9.391 46.242 17.676 9.93 7.688 18.508 14.324 36.438 14.324 17.922 0 26.492-6.637 36.422-14.324 10.702-8.285 22.827-17.676 46.226-17.676 23.406 0 35.539 9.391 46.25 17.672 9.93 7.688 18.508 14.328 36.453 14.328s26.523-6.641 36.453-14.328c10.711-8.281 22.844-17.672 46.25-17.672 4.422 0 8 3.582 8 8s-3.578 8-8 8c-17.945 0-26.523 6.641-36.453 14.328-10.711 8.281-22.844 17.672-46.25 17.672z" fill="#b3e59f"/></svg>