<?xml version="1.0" encoding="iso-8859-1"?>
<!-- Generator: Adobe Illustrator 19.0.0, SVG Export Plug-In . SVG Version: 6.00 Build 0)  -->
<svg version="1.1" id="Layer_1" xmlns="http://www.w3.org/2000/svg" xmlns:xlink="http://www.w3.org/1999/xlink" x="0px" y="0px"
	 viewBox="0 0 501.551 501.551" style="enable-background:new 0 0 501.551 501.551;" xml:space="preserve">
<path style="fill:#E2E2E2;" d="M323.818,477.518h-17.763L289.337,409.6h-16.718L255.9,477.518h-17.763
	c-13.584,0-24.033,10.449-24.033,24.033h133.747C347.851,487.967,337.402,477.518,323.818,477.518z"/>
<circle style="fill:#FFD15C;" cx="157.679" cy="85.682" r="85.682"/>
<circle style="fill:#F8B64C;" cx="157.679" cy="85.682" r="51.2"/>
<path style="fill:#F2F2F2;" d="M418.904,230.922L418.904,230.922c-9.404-24.033-14.629-50.155-14.629-75.233V85.682H157.679v70.008
	c0,26.122-5.224,51.2-14.629,75.233l0,0c-37.616,97.176,33.437,202.71,137.927,202.71S457.565,328.098,418.904,230.922z"/>
<path style="fill:#54C0EB;" d="M387.557,236.147H174.398c-1.045,2.09-1.045,4.18-2.09,6.269
	c-14.629,36.571-9.404,76.278,12.539,108.669s57.469,51.2,96.131,51.2c39.706,0,74.188-18.808,96.131-51.2
	c21.943-32.392,26.122-72.098,12.539-108.669C388.602,240.327,388.602,238.237,387.557,236.147z"/>
<path style="fill:#FF7058;" d="M429.353,25.078c-2.09-5.224-7.314-8.359-12.539-7.314l-91.951,27.167
	c-20.898,6.269-38.661,21.943-45.975,42.841l-52.245,148.375h21.943l50.155-142.106c5.224-14.629,16.718-26.122,31.347-30.302
	l91.951-27.167C427.263,35.527,430.398,30.302,429.353,25.078z"/>
<g>
</g>
<g>
</g>
<g>
</g>
<g>
</g>
<g>
</g>
<g>
</g>
<g>
</g>
<g>
</g>
<g>
</g>
<g>
</g>
<g>
</g>
<g>
</g>
<g>
</g>
<g>
</g>
<g>
</g>
</svg>
